<svg width="32" height="32" viewBox="0 0 32 32" fill="none" xmlns="http://www.w3.org/2000/svg">
  <!-- Gradiente para o sol -->
  <defs>
    <radialGradient id="sunGradient" cx="50%" cy="50%" r="50%">
      <stop offset="0%" style="stop-color:#FFD700;stop-opacity:1" />
      <stop offset="100%" style="stop-color:#FFA500;stop-opacity:1" />
    </radialGradient>
    <linearGradient id="skyGradient" x1="0%" y1="0%" x2="0%" y2="100%">
      <stop offset="0%" style="stop-color:#87CEEB;stop-opacity:1" />
      <stop offset="100%" style="stop-color:#FFE4B5;stop-opacity:1" />
    </linearGradient>
  </defs>
  
  <!-- Céu do amanhecer -->
  <rect width="32" height="32" fill="url(#skyGradient)" rx="4"/>
  
  <!-- Raios do sol -->
  <g stroke="#FFD700" stroke-width="1.5" stroke-linecap="round">
    <line x1="16" y1="2" x2="16" y2="5" />
    <line x1="25.66" y1="6.34" x2="23.54" y2="8.46" />
    <line x1="30" y1="16" x2="27" y2="16" />
    <line x1="25.66" y1="25.66" x2="23.54" y2="23.54" />
    <line x1="16" y1="30" x2="16" y2="27" />
    <line x1="6.34" y1="25.66" x2="8.46" y2="23.54" />
    <line x1="2" y1="16" x2="5" y2="16" />
    <line x1="6.34" y1="6.34" x2="8.46" y2="8.46" />
  </g>
  
  <!-- Sol -->
  <circle cx="16" cy="16" r="6" fill="url(#sunGradient)" />
  
  <!-- Horizonte -->
  <path d="M0 24 Q8 22 16 24 Q24 26 32 24 L32 32 L0 32 Z" fill="#228B22" opacity="0.7"/>
</svg>