<svg width="32" height="32" viewBox="0 0 32 32" fill="none" xmlns="http://www.w3.org/2000/svg">
  <!-- Gradientes -->
  <defs>
    <radialGradient id="sunsetSun" cx="50%" cy="50%" r="50%">
      <stop offset="0%" style="stop-color:#FFD700;stop-opacity:1" />
      <stop offset="70%" style="stop-color:#FF6347;stop-opacity:1" />
      <stop offset="100%" style="stop-color:#FF4500;stop-opacity:1" />
    </radialGradient>
    <linearGradient id="sunsetSky" x1="0%" y1="0%" x2="0%" y2="100%">
      <stop offset="0%" style="stop-color:#FF6B6B;stop-opacity:1" />
      <stop offset="30%" style="stop-color:#FFE66D;stop-opacity:1" />
      <stop offset="70%" style="stop-color:#FF8E53;stop-opacity:1" />
      <stop offset="100%" style="stop-color:#4ECDC4;stop-opacity:1" />
    </linearGradient>
  </defs>
  
  <!-- Céu do pôr do sol -->
  <rect width="32" height="32" fill="url(#sunsetSky)" rx="4"/>
  
  <!-- Sol do pôr do sol -->
  <circle cx="16" cy="20" r="6" fill="url(#sunsetSun)" />
  
  <!-- Raios suaves -->
  <g stroke="#FFD700" stroke-width="1" stroke-linecap="round" opacity="0.7">
    <line x1="16" y1="8" x2="16" y2="11" />
    <line x1="24.24" y1="11.76" x2="22.12" y2="13.88" />
    <line x1="28" y1="20" x2="25" y2="20" />
    <line x1="7.76" y1="11.76" x2="9.88" y2="13.88" />
    <line x1="4" y1="20" x2="7" y2="20" />
  </g>
  
  <!-- Nuvens do pôr do sol -->
  <g fill="#FF8E53" opacity="0.6">
    <ellipse cx="6" cy="12" rx="4" ry="2" />
    <ellipse cx="26" cy="14" rx="3" ry="1.5" />
    <ellipse cx="12" cy="8" rx="2.5" ry="1.2" />
  </g>
  
  <!-- Reflexo na água -->
  <path d="M0 26 Q16 24 32 26 L32 32 L0 32 Z" fill="#4ECDC4" opacity="0.8"/>
  <ellipse cx="16" cy="28" rx="3" ry="1" fill="#FFD700" opacity="0.4"/>
</svg>